<?xml version="1.0" encoding="UTF-8" standalone="no"?><!DOCTYPE svg PUBLIC "-//W3C//DTD SVG 1.1//EN" "http://www.w3.org/Graphics/SVG/1.1/DTD/svg11.dtd"><svg width="186" height="186" viewBox="0 0 186 186" version="1.1" xmlns="http://www.w3.org/2000/svg" xmlns:xlink="http://www.w3.org/1999/xlink" xml:space="preserve" xmlns:serif="http://www.serif.com/" style="fill-rule:evenodd;clip-rule:evenodd;stroke-linejoin:round;stroke-miterlimit:2;"><g><path d="M126.572,92.631l-33.941,-33.941l-33.941,33.941l33.941,33.941l33.941,-33.941Z" style="fill:#fff;"/><path d="M111.723,64.347l-19.092,-19.092l-19.092,19.092l-22.627,-22.628l19.963,-19.963l21.756,-21.756l41.719,41.719l-22.627,22.628Z" style="fill:#fff;"/><path d="M120.915,111.723l19.092,-19.092l-19.092,-19.092l22.628,-22.627l19.963,19.963l21.756,21.756l-41.719,41.719l-22.628,-22.627Z" style="fill:#fff;"/><path d="M73.539,120.915l19.092,19.092l19.092,-19.092l22.627,22.628l-19.963,19.963l-21.756,21.756l-41.719,-41.719l22.627,-22.628Z" style="fill:#fff;"/><path d="M64.347,73.539l-19.092,19.092l19.092,19.092l-22.628,22.627l-19.963,-19.963l-21.756,-21.756l41.719,-41.719l22.628,22.627Z" style="fill:#fff;"/></g></svg>