<?xml version="1.0" encoding="UTF-8" standalone="no"?><!DOCTYPE svg PUBLIC "-//W3C//DTD SVG 1.1//EN" "http://www.w3.org/Graphics/SVG/1.1/DTD/svg11.dtd"><svg width="683" height="186" viewBox="0 0 683 186" version="1.1" xmlns="http://www.w3.org/2000/svg" xmlns:xlink="http://www.w3.org/1999/xlink" xml:space="preserve" xmlns:serif="http://www.serif.com/" style="fill-rule:evenodd;clip-rule:evenodd;stroke-linejoin:round;stroke-miterlimit:2;"><g><path d="M126.572,92.631l-33.941,-33.941l-33.941,33.941l33.941,33.941l33.941,-33.941Z" style="fill:#3d996f;"/><path d="M111.723,64.347l-19.092,-19.092l-19.092,19.092l-22.627,-22.628l19.963,-19.963l21.756,-21.756l41.719,41.719l-22.627,22.628Z" style="fill:#96d3b7;"/><path d="M120.915,111.723l19.092,-19.092l-19.092,-19.092l22.628,-22.627l19.963,19.963l21.756,21.756l-41.719,41.719l-22.628,-22.627Z" style="fill:#96d3b7;"/><path d="M73.539,120.915l19.092,19.092l19.092,-19.092l22.627,22.628l-19.963,19.963l-21.756,21.756l-41.719,-41.719l22.627,-22.628Z" style="fill:#96d3b7;"/><path d="M64.347,73.539l-19.092,19.092l19.092,19.092l-22.628,22.627l-19.963,-19.963l-21.756,-21.756l41.719,-41.719l22.628,22.627Z" style="fill:#96d3b7;"/></g><g><path d="M212.967,117.975c0,-6.144 1.08,-12.096 3.24,-17.856c2.16,-5.76 5.208,-10.872 9.144,-15.336c3.936,-4.464 8.712,-8.064 14.328,-10.8c5.616,-2.736 11.832,-4.104 18.648,-4.104c3.36,0 6.48,0.48 9.36,1.44c2.88,0.96 5.4,2.352 7.56,4.176c2.16,1.824 3.84,4.056 5.04,6.696c1.2,2.64 1.8,5.64 1.8,9c0,5.376 -1.2,9.936 -3.6,13.68c-2.4,3.744 -5.736,6.792 -10.008,9.144c-4.272,2.352 -9.336,4.056 -15.192,5.112c-5.856,1.056 -12.24,1.584 -19.152,1.584c0.672,4.032 2.136,6.888 4.392,8.568c2.256,1.68 5.832,2.52 10.728,2.52c3.072,0 6.192,-0.264 9.36,-0.792c3.168,-0.528 6.144,-1.32 8.928,-2.376l1.584,16.848c-2.688,1.056 -6.12,2.016 -10.296,2.88c-4.176,0.864 -8.712,1.296 -13.608,1.296c-5.952,0 -10.968,-0.84 -15.048,-2.52c-4.08,-1.68 -7.392,-3.96 -9.936,-6.84c-2.544,-2.88 -4.392,-6.24 -5.544,-10.08c-1.152,-3.84 -1.728,-7.92 -1.728,-12.24Zm41.904,-31.104c-4.896,0 -9.192,1.752 -12.888,5.256c-3.696,3.504 -6.12,8.136 -7.272,13.896c5.952,-0.192 10.752,-0.696 14.4,-1.512c3.648,-0.816 6.48,-1.8 8.496,-2.952c2.016,-1.152 3.36,-2.4 4.032,-3.744c0.672,-1.344 1.008,-2.688 1.008,-4.032c0,-4.608 -2.592,-6.912 -7.776,-6.912Z" style="fill:#4a4a4a;fill-rule:nonzero;"/><path d="M316.359,149.079c-6.816,0 -12.168,-0.888 -16.056,-2.664c-3.888,-1.776 -6.672,-4.2 -8.352,-7.272c-1.68,-3.072 -2.496,-6.6 -2.448,-10.584c0.048,-3.984 0.6,-8.232 1.656,-12.744l18.288,-76.464l22.32,-3.456l-20.016,82.944c-0.384,1.728 -0.6,3.312 -0.648,4.752c-0.048,1.44 0.216,2.712 0.792,3.816c0.576,1.104 1.56,1.992 2.952,2.664c1.392,0.672 3.336,1.104 5.832,1.296l-4.32,17.712Z" style="fill:#4a4a4a;fill-rule:nonzero;"/><path d="M360.279,149.079c-6.816,0 -12.168,-0.888 -16.056,-2.664c-3.888,-1.776 -6.672,-4.2 -8.352,-7.272c-1.68,-3.072 -2.496,-6.6 -2.448,-10.584c0.048,-3.984 0.6,-8.232 1.656,-12.744l18.288,-76.464l22.32,-3.456l-20.016,82.944c-0.384,1.728 -0.6,3.312 -0.648,4.752c-0.048,1.44 0.216,2.712 0.792,3.816c0.576,1.104 1.56,1.992 2.952,2.664c1.392,0.672 3.336,1.104 5.832,1.296l-4.32,17.712Z" style="fill:#4a4a4a;fill-rule:nonzero;"/><path d="M443.367,114.951c-1.344,5.472 -1.728,10.968 -1.152,16.488c0.576,5.52 1.68,10.44 3.312,14.76l-19.152,2.736c-0.576,-1.152 -1.104,-2.256 -1.584,-3.312c-0.48,-1.056 -0.96,-2.256 -1.44,-3.6c-2.688,2.208 -5.664,4.032 -8.928,5.472c-3.264,1.44 -6.912,2.16 -10.944,2.16c-4.8,0 -8.904,-0.84 -12.312,-2.52c-3.408,-1.68 -6.192,-3.936 -8.352,-6.768c-2.16,-2.832 -3.72,-6.144 -4.68,-9.936c-0.96,-3.792 -1.44,-7.848 -1.44,-12.168c0,-6.624 1.176,-12.864 3.528,-18.72c2.352,-5.856 5.616,-10.968 9.792,-15.336c4.176,-4.368 9.096,-7.8 14.76,-10.296c5.664,-2.496 11.808,-3.744 18.432,-3.744c0.864,0 2.376,0.048 4.536,0.144c2.16,0.096 4.632,0.312 7.416,0.648c2.784,0.336 5.712,0.888 8.784,1.656c3.072,0.768 6,1.824 8.784,3.168l-9.36,39.168Zm-14.976,-26.496c-1.248,-0.192 -2.376,-0.336 -3.384,-0.432c-1.008,-0.096 -2.232,-0.144 -3.672,-0.144c-3.264,0 -6.312,0.816 -9.144,2.448c-2.832,1.632 -5.304,3.768 -7.416,6.408c-2.112,2.64 -3.768,5.688 -4.968,9.144c-1.2,3.456 -1.8,7.056 -1.8,10.8c0,4.608 0.768,8.256 2.304,10.944c1.536,2.688 4.368,4.032 8.496,4.032c2.208,0 4.2,-0.432 5.976,-1.296c1.776,-0.864 3.672,-2.304 5.688,-4.32c0.192,-2.4 0.504,-4.92 0.936,-7.56c0.432,-2.64 0.888,-5.064 1.368,-7.272l5.616,-22.752Z" style="fill:#4a4a4a;fill-rule:nonzero;"/><path d="M478.359,147.639l-21.312,0l18,-75.744l21.456,0l-18.144,75.744Zm10.368,-84.96c-2.976,0 -5.664,-0.888 -8.064,-2.664c-2.4,-1.776 -3.6,-4.488 -3.6,-8.136c0,-2.016 0.408,-3.912 1.224,-5.688c0.816,-1.776 1.896,-3.312 3.24,-4.608c1.344,-1.296 2.904,-2.328 4.68,-3.096c1.776,-0.768 3.672,-1.152 5.688,-1.152c2.976,0 5.664,0.888 8.064,2.664c2.4,1.776 3.6,4.488 3.6,8.136c0,2.016 -0.408,3.912 -1.224,5.688c-0.816,1.776 -1.896,3.312 -3.24,4.608c-1.344,1.296 -2.904,2.328 -4.68,3.096c-1.776,0.768 -3.672,1.152 -5.688,1.152Z" style="fill:#4a4a4a;fill-rule:nonzero;"/><path d="M522.423,132.375c4.896,0 8.256,-0.696 10.08,-2.088c1.824,-1.392 2.736,-2.904 2.736,-4.536c0,-1.056 -0.168,-1.968 -0.504,-2.736c-0.336,-0.768 -0.888,-1.488 -1.656,-2.16c-0.768,-0.672 -1.824,-1.368 -3.168,-2.088c-1.344,-0.72 -3.072,-1.56 -5.184,-2.52c-2.4,-1.056 -4.656,-2.184 -6.768,-3.384c-2.112,-1.2 -3.96,-2.64 -5.544,-4.32c-1.584,-1.68 -2.832,-3.6 -3.744,-5.76c-0.912,-2.16 -1.368,-4.728 -1.368,-7.704c0,-7.776 2.856,-13.92 8.568,-18.432c5.712,-4.512 14.04,-6.768 24.984,-6.768c5.184,0 9.792,0.576 13.824,1.728c4.032,1.152 7.296,2.4 9.792,3.744l-7.344,15.984c-2.016,-1.056 -4.608,-2.064 -7.776,-3.024c-3.168,-0.96 -6.288,-1.44 -9.36,-1.44c-1.344,0 -2.664,0.072 -3.96,0.216c-1.296,0.144 -2.496,0.456 -3.6,0.936c-1.104,0.48 -1.992,1.152 -2.664,2.016c-0.672,0.864 -1.008,2.016 -1.008,3.456c0,1.92 0.744,3.36 2.232,4.32c1.488,0.96 3.576,2.112 6.264,3.456c3.744,1.824 6.864,3.504 9.36,5.04c2.496,1.536 4.488,3.168 5.976,4.896c1.488,1.728 2.568,3.696 3.24,5.904c0.672,2.208 1.008,4.8 1.008,7.776c0,3.072 -0.648,6.096 -1.944,9.072c-1.296,2.976 -3.336,5.616 -6.12,7.92c-2.784,2.304 -6.336,4.176 -10.656,5.616c-4.32,1.44 -9.504,2.16 -15.552,2.16c-3.744,0 -7.128,-0.24 -10.152,-0.72c-3.024,-0.48 -5.688,-1.08 -7.992,-1.8c-2.304,-0.72 -4.248,-1.464 -5.832,-2.232c-1.584,-0.768 -2.808,-1.392 -3.672,-1.872l7.344,-16.416c1.632,0.96 4.176,2.16 7.632,3.6c3.456,1.44 7.632,2.16 12.528,2.16Z" style="fill:#4a4a4a;fill-rule:nonzero;"/><path d="M584.775,75.351c1.632,-0.48 3.384,-1.032 5.256,-1.656c1.872,-0.624 3.984,-1.2 6.336,-1.728c2.352,-0.528 4.992,-0.96 7.92,-1.296c2.928,-0.336 6.312,-0.504 10.152,-0.504c4.608,0 8.424,0.576 11.448,1.728c3.024,1.152 5.784,2.88 8.28,5.184c3.552,-2.016 7.08,-3.672 10.584,-4.968c3.504,-1.296 7.608,-1.944 12.312,-1.944c4.512,0 8.376,0.6 11.592,1.8c3.216,1.2 5.88,2.928 7.992,5.184c2.112,2.256 3.648,4.944 4.608,8.064c0.96,3.12 1.44,6.552 1.44,10.296c0,1.728 -0.12,3.552 -0.36,5.472c-0.24,1.92 -0.6,3.84 -1.08,5.76l-9.792,40.896l-21.456,0l9.504,-40.032c0.288,-1.344 0.6,-2.856 0.936,-4.536c0.336,-1.68 0.504,-3.336 0.504,-4.968c0,-2.688 -0.624,-5.016 -1.872,-6.984c-1.248,-1.968 -3.696,-2.952 -7.344,-2.952c-2.016,0 -3.936,0.36 -5.76,1.08c-1.824,0.72 -3.456,1.464 -4.896,2.232c0.192,0.768 0.288,1.488 0.288,2.16l0,1.872c0,1.728 -0.12,3.552 -0.36,5.472c-0.24,1.92 -0.6,3.84 -1.08,5.76l-9.792,40.896l-21.456,0l9.504,-40.032c0.288,-1.344 0.6,-2.856 0.936,-4.536c0.336,-1.68 0.504,-3.336 0.504,-4.968c0,-2.688 -0.624,-5.016 -1.872,-6.984c-1.248,-1.968 -3.696,-2.952 -7.344,-2.952c-1.536,0 -2.832,0.072 -3.888,0.216c-1.056,0.144 -2.304,0.36 -3.744,0.648l-13.968,58.608l-21.456,0l17.424,-72.288Z" style="fill:#4a4a4a;fill-rule:nonzero;"/></g></svg>